<svg id="visual" viewBox="0 0 877 979" width="877" height="979" xmlns="http://www.w3.org/2000/svg" xmlns:xlink="http://www.w3.org/1999/xlink" version="1.1"><rect x="0" y="0" width="877" height="979" fill="#87b9e0"></rect><defs><linearGradient id="grad1_0" x1="0%" y1="100%" x2="100%" y2="0%"><stop offset="30%" stop-color="#bff8fc" stop-opacity="1"></stop><stop offset="70%" stop-color="#bff8fc" stop-opacity="1"></stop></linearGradient></defs><defs><linearGradient id="grad1_1" x1="0%" y1="100%" x2="100%" y2="0%"><stop offset="30%" stop-color="#bff8fc" stop-opacity="1"></stop><stop offset="70%" stop-color="#ace9f6" stop-opacity="1"></stop></linearGradient></defs><defs><linearGradient id="grad1_2" x1="0%" y1="100%" x2="100%" y2="0%"><stop offset="30%" stop-color="#9cd9ef" stop-opacity="1"></stop><stop offset="70%" stop-color="#ace9f6" stop-opacity="1"></stop></linearGradient></defs><defs><linearGradient id="grad1_3" x1="0%" y1="100%" x2="100%" y2="0%"><stop offset="30%" stop-color="#9cd9ef" stop-opacity="1"></stop><stop offset="70%" stop-color="#8fc9e8" stop-opacity="1"></stop></linearGradient></defs><defs><linearGradient id="grad1_4" x1="0%" y1="100%" x2="100%" y2="0%"><stop offset="30%" stop-color="#87b9e0" stop-opacity="1"></stop><stop offset="70%" stop-color="#8fc9e8" stop-opacity="1"></stop></linearGradient></defs><defs><linearGradient id="grad2_0" x1="0%" y1="100%" x2="100%" y2="0%"><stop offset="30%" stop-color="#bff8fc" stop-opacity="1"></stop><stop offset="70%" stop-color="#bff8fc" stop-opacity="1"></stop></linearGradient></defs><defs><linearGradient id="grad2_1" x1="0%" y1="100%" x2="100%" y2="0%"><stop offset="30%" stop-color="#ace9f6" stop-opacity="1"></stop><stop offset="70%" stop-color="#bff8fc" stop-opacity="1"></stop></linearGradient></defs><defs><linearGradient id="grad2_2" x1="0%" y1="100%" x2="100%" y2="0%"><stop offset="30%" stop-color="#ace9f6" stop-opacity="1"></stop><stop offset="70%" stop-color="#9cd9ef" stop-opacity="1"></stop></linearGradient></defs><defs><linearGradient id="grad2_3" x1="0%" y1="100%" x2="100%" y2="0%"><stop offset="30%" stop-color="#8fc9e8" stop-opacity="1"></stop><stop offset="70%" stop-color="#9cd9ef" stop-opacity="1"></stop></linearGradient></defs><defs><linearGradient id="grad2_4" x1="0%" y1="100%" x2="100%" y2="0%"><stop offset="30%" stop-color="#8fc9e8" stop-opacity="1"></stop><stop offset="70%" stop-color="#87b9e0" stop-opacity="1"></stop></linearGradient></defs><g transform="translate(877, 979)"><path d="M-558.6 0C-556.6 -59.7 -554.6 -119.5 -531.3 -172.6C-508 -225.8 -463.4 -272.3 -411 -298.6C-358.6 -324.9 -298.3 -331.1 -253.9 -349.5C-209.6 -367.9 -181.2 -398.7 -141.5 -435.6C-101.9 -472.5 -50.9 -515.5 0 -558.6L0 0Z" fill="#8bc1e4"></path><path d="M-446.9 0C-445.3 -47.8 -443.6 -95.6 -425 -138.1C-406.4 -180.6 -370.7 -217.8 -328.8 -238.9C-286.8 -259.9 -238.6 -264.8 -203.1 -279.6C-167.7 -294.3 -145 -318.9 -113.2 -348.5C-81.5 -378 -40.7 -412.4 0 -446.9L0 0Z" fill="#95d1ec"></path><path d="M-335.2 0C-334 -35.8 -332.7 -71.7 -318.8 -103.6C-304.8 -135.5 -278 -163.4 -246.6 -179.2C-215.1 -195 -179 -198.6 -152.4 -209.7C-125.7 -220.8 -108.7 -239.2 -84.9 -261.4C-61.1 -283.5 -30.6 -309.3 0 -335.2L0 0Z" fill="#a3e1f2"></path><path d="M-223.4 0C-222.6 -23.9 -221.8 -47.8 -212.5 -69C-203.2 -90.3 -185.4 -108.9 -164.4 -119.4C-143.4 -130 -119.3 -132.4 -101.6 -139.8C-83.8 -147.2 -72.5 -159.5 -56.6 -174.2C-40.7 -189 -20.4 -206.2 0 -223.4L0 0Z" fill="#b5f1f9"></path><path d="M-111.7 0C-111.3 -11.9 -110.9 -23.9 -106.3 -34.5C-101.6 -45.2 -92.7 -54.5 -82.2 -59.7C-71.7 -65 -59.7 -66.2 -50.8 -69.9C-41.9 -73.6 -36.2 -79.7 -28.3 -87.1C-20.4 -94.5 -10.2 -103.1 0 -111.7L0 0Z" fill="#bff8fc"></path></g><g transform="translate(0, 0)"><path d="M558.6 0C554.9 59.4 551.2 118.7 531.3 172.6C511.3 226.5 475.1 275 430.4 312.7C385.7 350.4 332.5 377.4 281.5 387.5C230.6 397.6 181.9 390.9 135.3 416.6C88.8 442.3 44.4 500.4 0 558.6L0 0Z" fill="#8bc1e4"></path><path d="M446.9 0C443.9 47.5 441 95 425 138.1C409.1 181.2 380.1 220 344.3 250.2C308.6 280.3 266 301.9 225.2 310C184.5 318.1 145.5 312.7 108.3 333.3C71 353.8 35.5 400.3 0 446.9L0 0Z" fill="#95d1ec"></path><path d="M335.2 0C332.9 35.6 330.7 71.2 318.8 103.6C306.8 135.9 285.1 165 258.2 187.6C231.4 210.3 199.5 226.4 168.9 232.5C138.4 238.6 109.1 234.5 81.2 249.9C53.3 265.4 26.6 300.3 0 335.2L0 0Z" fill="#a3e1f2"></path><path d="M223.4 0C222 23.7 220.5 47.5 212.5 69C204.5 90.6 190 110 172.2 125.1C154.3 140.2 133 151 112.6 155C92.2 159.1 72.8 156.3 54.1 166.6C35.5 176.9 17.8 200.2 0 223.4L0 0Z" fill="#b5f1f9"></path><path d="M111.7 0C111 11.9 110.2 23.7 106.3 34.5C102.3 45.3 95 55 86.1 62.5C77.1 70.1 66.5 75.5 56.3 77.5C46.1 79.5 36.4 78.2 27.1 83.3C17.8 88.5 8.9 100.1 0 111.7L0 0Z" fill="#bff8fc"></path></g></svg>